<svg xmlns="http://www.w3.org/2000/svg" width="279" height="237" viewBox="0 0 279 237">
<g>
<path d="M 219.75 193.00 C218.51,194.81 216.54,196.92 215.37,197.69 C213.53,198.90 213.17,198.88 212.65,197.54 C212.30,196.61 210.83,196.00 208.96,196.00 C206.24,196.00 202.61,192.74 178.96,169.00 C154.91,144.86 149.00,139.72 149.00,142.97 C149.00,143.50 148.28,143.66 147.40,143.32 C146.25,142.88 138.05,150.45 118.15,170.33 L 90.50 197.95 L 85.50 196.47 C82.75,195.65 79.07,193.65 77.32,192.01 C74.61,189.47 74.25,188.61 74.93,186.23 C76.49,180.81 79.87,175.38 82.42,174.22 C83.84,173.57 85.00,172.34 85.00,171.47 C85.00,169.68 89.85,165.08 91.80,165.03 C92.52,165.01 93.56,163.68 94.12,162.07 C94.77,160.22 96.22,158.77 98.07,158.12 C99.68,157.56 101.00,156.54 101.00,155.86 C101.00,154.15 106.06,149.00 107.74,149.00 C108.49,149.00 109.58,147.65 110.15,145.99 C110.80,144.13 112.11,142.76 113.61,142.38 C115.01,142.03 116.66,140.40 117.58,138.47 C118.48,136.57 120.59,134.47 122.51,133.56 C128.88,130.54 131.60,119.14 126.50,116.82 C125.12,116.19 124.00,115.33 124.00,114.90 C124.00,114.47 113.18,103.26 99.95,89.99 C86.72,76.71 75.47,64.73 74.95,63.36 C73.77,60.27 74.95,57.87 79.74,53.63 C84.20,49.69 85.86,49.07 89.03,50.16 C90.42,50.65 103.91,63.41 119.02,78.52 C143.91,103.42 146.80,106.00 149.79,106.00 C152.63,106.00 153.31,105.50 154.56,102.50 C155.37,100.57 156.39,99.00 156.83,99.00 C158.25,99.00 164.54,92.60 166.00,89.68 C166.78,88.12 168.84,86.26 170.57,85.53 C172.52,84.72 173.97,83.25 174.36,81.71 C174.76,80.11 176.08,78.82 177.99,78.15 C179.65,77.58 181.00,76.39 181.00,75.51 C181.00,73.44 183.90,70.43 186.72,69.57 C187.95,69.19 189.53,67.67 190.24,66.19 C190.95,64.71 193.21,62.71 195.26,61.74 C197.32,60.78 199.00,59.58 199.00,59.08 C199.00,58.58 201.32,56.32 204.15,54.07 C208.89,50.30 209.44,50.09 211.03,51.53 C212.16,52.55 213.65,52.87 215.30,52.46 C217.27,51.97 218.18,52.34 219.35,54.16 C221.49,57.46 222.33,61.54 221.54,64.75 C221.10,66.54 211.00,77.40 192.70,95.76 L 164.53 124.02 L 192.16 151.76 C207.36,167.02 220.29,180.48 220.89,181.68 C222.63,185.12 222.20,189.41 219.75,193.00 Z" fill="rgb(28,48,80)"/>
<path d="M 117.86 170.64 L 90.21 198.27 L 85.36 198.63 C82.69,198.82 79.49,198.55 78.26,198.03 C73.22,195.88 70.33,186.16 73.11,180.68 C73.71,179.48 86.42,166.24 101.35,151.25 L 128.49 124.00 L 101.35 96.75 C86.42,81.76 73.71,68.52 73.11,67.32 C72.50,66.11 72.00,63.11 72.00,60.64 C72.00,56.99 72.56,55.60 75.00,53.16 C76.64,51.51 79.34,49.86 81.00,49.50 C83.33,48.99 85.00,48.74 87.30,49.73 C85.10,49.44 83.32,50.47 79.74,53.63 C74.95,57.87 73.77,60.27 74.95,63.36 C75.47,64.73 86.72,76.71 99.95,89.99 C113.18,103.26 124.00,114.47 124.00,114.90 C124.00,115.33 125.12,116.19 126.50,116.82 C131.60,119.14 128.88,130.54 122.51,133.56 C120.59,134.47 118.48,136.57 117.58,138.47 C116.66,140.40 115.01,142.03 113.61,142.38 C112.11,142.76 110.80,144.13 110.15,145.99 C109.58,147.65 108.49,149.00 107.74,149.00 C106.06,149.00 101.00,154.15 101.00,155.86 C101.00,156.54 99.68,157.56 98.07,158.12 C96.22,158.77 94.77,160.22 94.12,162.07 C93.56,163.68 92.52,165.01 91.80,165.03 C89.85,165.08 85.00,169.68 85.00,171.47 C85.00,172.34 83.84,173.57 82.42,174.22 C79.87,175.38 76.49,180.81 74.93,186.23 C74.25,188.61 74.61,189.47 77.32,192.01 C79.07,193.65 82.75,195.65 85.50,196.47 L 90.50 197.95 L 118.15 170.33 C123.66,164.83 128.27,160.27 132.09,156.56 C127.87,160.69 123.00,165.51 117.86,170.64 ZM 147.03 143.36 C147.20,143.30 147.32,143.29 147.40,143.32 C148.28,143.66 149.00,143.50 149.00,142.97 C149.00,139.72 154.91,144.86 178.96,169.00 C202.61,192.74 206.24,196.00 208.96,196.00 C210.83,196.00 212.30,196.61 212.65,197.54 C212.83,198.00 212.99,198.31 213.20,198.46 C210.04,199.36 206.07,199.09 203.20,197.57 C201.72,196.78 188.58,184.18 174.01,169.57 C160.91,156.43 149.59,145.45 147.03,143.36 ZM 217.81 52.53 C217.15,52.18 216.39,52.19 215.30,52.46 C213.65,52.87 212.16,52.55 211.03,51.53 C209.44,50.09 208.89,50.30 204.15,54.07 C201.32,56.32 199.00,58.58 199.00,59.08 C199.00,59.58 197.32,60.78 195.26,61.74 C193.21,62.71 190.95,64.71 190.24,66.19 C189.53,67.67 187.95,69.19 186.72,69.57 C183.90,70.43 181.00,73.44 181.00,75.51 C181.00,76.39 179.65,77.58 177.99,78.15 C176.08,78.82 174.76,80.11 174.36,81.71 C173.97,83.25 172.52,84.72 170.57,85.53 C168.84,86.26 166.78,88.12 166.00,89.68 C164.54,92.60 158.25,99.00 156.83,99.00 C156.39,99.00 155.37,100.57 154.56,102.50 C153.31,105.50 152.63,106.00 149.79,106.00 C149.15,106.00 148.50,105.88 147.64,105.44 L 173.36 79.31 C191.20,61.19 201.21,51.76 203.89,50.55 C208.97,48.26 214.31,49.22 217.81,52.53 ZM 219.75 193.00 C220.85,191.39 221.54,189.64 221.81,187.89 C221.32,191.20 219.42,194.52 216.39,196.91 C216.31,196.97 216.22,197.03 216.14,197.09 C217.29,196.11 218.76,194.46 219.75,193.00 ZM 219.22 68.01 C215.30,72.70 206.50,81.91 192.70,95.76 C206.19,82.22 215.23,72.76 219.22,68.01 ZM 96.68 56.78 C98.91,58.83 101.58,61.38 104.82,64.54 C101.77,61.59 99.01,58.96 96.68,56.78 ZM 221.55 64.69 C221.58,64.60 221.60,64.50 221.62,64.41 C221.60,64.50 221.58,64.58 221.56,64.66 C221.56,64.67 221.56,64.68 221.55,64.69 Z" fill="rgb(38,47,71)"/>
<path d="M 0.00 0.00 L 279.00 0.00 L 279.00 237.00 L 0.00 237.00 ZM 79.54 206.40 C81.65,208.51 83.40,208.01 83.82,205.17 C84.23,202.35 87.49,200.65 91.08,201.37 C94.13,201.98 96.41,200.44 97.49,197.05 C98.00,195.44 100.64,193.77 103.02,193.55 C105.21,193.34 113.98,184.10 113.40,182.60 C112.88,181.26 115.33,178.11 117.07,177.88 C117.58,177.81 118.35,177.69 118.77,177.62 C121.31,177.22 130.01,168.19 129.40,166.60 C128.88,165.26 131.33,162.11 133.07,161.88 C133.58,161.81 134.45,161.69 135.01,161.62 C135.56,161.56 137.84,159.78 140.07,157.67 C144.99,153.04 149.79,151.06 151.10,153.11 C151.58,153.88 151.81,154.97 151.60,155.54 C151.14,156.81 153.44,160.14 154.64,159.92 C157.00,159.49 158.09,160.29 159.38,163.37 C160.15,165.22 162.50,168.03 164.60,169.62 C166.70,171.20 169.99,174.30 171.92,176.50 C173.84,178.70 178.97,184.03 183.31,188.34 C187.65,192.65 191.31,196.92 191.44,197.84 C191.79,200.34 196.61,202.30 200.59,201.55 C202.46,201.20 204.00,200.43 204.00,199.84 C204.00,199.20 204.92,199.37 206.27,200.26 C207.61,201.13 210.87,201.75 214.17,201.75 C217.26,201.75 220.22,202.02 220.76,202.35 C221.29,202.68 222.51,202.10 223.45,201.05 C224.96,199.39 225.09,197.64 224.54,186.83 C224.20,180.05 223.84,172.81 223.76,170.75 C223.60,167.16 222.30,165.86 218.50,165.50 C217.95,165.45 217.63,164.82 217.79,164.10 C218.20,162.19 216.09,160.03 214.43,160.67 C212.69,161.33 212.54,163.68 214.20,164.23 C215.10,164.53 215.11,164.81 214.24,165.35 C213.56,165.77 211.12,164.13 208.31,161.36 C205.47,158.56 204.04,156.49 204.77,156.24 C205.45,156.02 205.76,155.42 205.45,154.91 C205.14,154.41 205.58,154.00 206.44,154.00 C208.40,154.00 208.45,152.62 206.55,151.04 C205.72,150.35 204.16,150.13 202.93,150.52 C200.07,151.43 195.97,149.24 196.75,147.21 C197.12,146.25 196.93,145.93 196.25,146.35 C195.65,146.72 194.50,146.36 193.70,145.56 C192.90,144.75 192.05,144.28 191.83,144.50 C191.61,144.73 190.85,143.98 190.14,142.85 C189.43,141.72 189.34,141.09 189.93,141.45 C190.52,141.82 191.01,141.53 191.01,140.81 C191.02,140.09 191.28,138.57 191.58,137.44 C192.00,135.89 191.44,135.05 189.32,134.02 C187.77,133.27 186.13,132.74 185.68,132.85 C185.22,132.96 185.15,132.57 185.51,131.98 C185.87,131.39 185.65,130.28 185.01,129.51 C184.11,128.43 183.31,128.36 181.46,129.20 C180.14,129.80 179.35,130.79 179.69,131.40 C180.04,132.00 179.12,131.40 177.65,130.06 C175.39,128.01 175.04,127.01 175.44,123.70 C175.70,121.54 176.61,118.72 177.46,117.42 C179.19,114.78 182.41,112.75 183.36,113.70 C184.22,114.55 188.00,111.01 188.00,109.35 C188.00,108.61 188.62,108.00 189.38,108.00 C191.76,108.00 193.63,104.84 193.92,100.32 C194.00,99.12 197.77,97.40 199.38,97.84 C200.64,98.19 204.00,94.93 204.00,93.35 C204.00,92.61 204.62,92.00 205.38,92.00 C207.28,92.00 209.00,89.70 209.61,86.36 C210.19,83.19 211.52,82.04 214.64,82.02 C215.82,82.01 217.04,81.33 217.36,80.52 C217.67,79.70 218.50,79.25 219.21,79.51 C219.92,79.77 221.54,78.38 222.82,76.40 C224.94,73.13 225.12,71.88 224.85,62.16 C224.70,56.30 224.88,50.99 225.27,50.36 C226.58,48.26 223.23,46.90 215.86,46.53 C211.83,46.33 208.11,46.43 207.59,46.76 C207.06,47.08 204.35,47.25 201.56,47.14 C197.46,46.97 195.98,47.38 193.75,49.33 C192.24,50.65 191.00,52.47 191.00,53.37 C191.00,54.26 190.55,55.00 190.00,55.00 C189.45,55.00 189.00,55.67 189.00,56.50 C189.00,57.33 188.32,58.00 187.50,58.00 C186.68,58.00 186.00,58.67 186.00,59.50 C186.00,60.33 185.52,61.00 184.94,61.00 C184.36,61.00 184.16,61.45 184.50,62.00 C184.84,62.55 184.53,63.03 183.81,63.08 C179.07,63.35 175.85,64.68 176.15,66.24 C176.51,68.10 175.01,72.00 173.93,72.00 C173.42,72.00 173.00,73.29 173.00,74.86 C173.00,77.32 172.65,77.69 170.50,77.45 C169.12,77.30 168.24,77.59 168.55,78.09 C168.86,78.59 168.53,79.03 167.81,79.08 C162.81,79.37 159.69,80.75 160.32,82.39 C160.61,83.15 160.22,84.66 159.46,85.75 C158.70,86.84 158.33,88.00 158.65,88.32 C158.98,88.64 158.54,89.60 157.69,90.45 C155.88,92.26 154.57,92.51 155.60,90.85 C156.04,90.12 155.87,89.96 155.14,90.41 C154.49,90.81 154.21,91.53 154.51,92.01 C154.80,92.49 153.48,93.63 151.57,94.53 C147.96,96.25 142.64,95.85 141.36,93.77 C140.96,93.13 141.16,92.98 141.85,93.40 C142.49,93.80 143.01,93.54 143.01,92.81 C143.02,92.09 143.28,90.57 143.58,89.44 C144.00,87.89 143.44,87.05 141.32,86.02 C139.77,85.27 138.13,84.74 137.68,84.85 C137.22,84.96 137.15,84.57 137.51,83.98 C138.44,82.48 136.14,80.01 134.43,80.67 C132.72,81.32 132.51,84.00 134.17,84.00 C134.81,84.00 135.04,84.30 134.68,84.66 C134.31,85.02 134.58,86.01 135.26,86.85 C135.94,87.69 135.04,87.31 133.25,86.00 C131.46,84.69 130.00,83.32 130.00,82.95 C130.00,82.58 128.76,81.01 127.25,79.46 C125.74,77.92 125.06,76.98 125.75,77.39 C126.48,77.82 127.01,77.58 127.01,76.81 C127.02,76.09 127.28,74.55 127.59,73.39 C128.23,71.03 126.76,70.12 121.04,69.28 C117.78,68.81 117.66,68.89 119.04,70.64 C120.38,72.35 120.36,72.39 118.76,71.14 C116.70,69.52 117.33,68.00 120.06,68.00 C122.24,68.00 122.55,66.95 120.87,65.27 C120.10,64.50 118.95,64.45 117.23,65.10 C115.85,65.63 114.64,65.93 114.54,65.78 C110.90,60.32 109.56,58.95 108.32,59.43 C107.22,59.85 107.02,59.44 107.49,57.74 C108.10,55.53 108.08,55.52 106.47,57.50 C104.91,59.40 104.85,59.26 105.17,54.50 C105.49,49.68 105.41,49.51 103.00,49.78 C101.62,49.93 100.34,50.51 100.15,51.07 C99.96,51.63 98.75,50.94 97.45,49.54 C95.92,47.89 93.94,46.96 91.80,46.89 C89.98,46.82 87.23,46.62 85.69,46.44 C84.14,46.26 81.89,46.48 80.69,46.93 C79.48,47.38 77.56,47.39 76.40,46.95 C73.46,45.85 69.50,48.04 69.50,50.77 C69.50,51.98 68.26,54.12 66.75,55.52 C64.37,57.74 64.00,58.85 64.00,63.82 C64.00,69.15 64.22,69.70 67.01,71.35 C68.66,72.32 70.82,74.70 71.81,76.62 C72.80,78.54 74.71,80.67 76.05,81.34 C77.40,82.01 79.19,84.02 80.04,85.82 C80.89,87.61 81.84,88.83 82.15,88.52 C82.95,87.71 96.00,100.11 96.00,101.68 C96.00,102.41 96.37,103.00 96.83,103.00 C98.72,103.00 110.83,115.68 111.42,118.28 C111.78,119.86 113.10,121.55 114.47,122.17 C116.95,123.30 118.71,126.00 116.97,126.00 C114.91,126.00 114.44,126.19 112.71,127.76 C111.73,128.65 111.13,129.91 111.39,130.56 C111.64,131.22 111.20,132.98 110.42,134.49 C109.64,136.00 109.00,138.39 109.00,139.81 C109.00,142.31 108.95,142.32 107.43,140.44 C106.56,139.37 106.09,138.99 106.39,139.60 C107.13,141.11 102.47,143.44 98.65,143.47 C95.99,143.50 95.48,143.89 95.40,146.00 C95.26,149.46 91.26,157.00 89.56,157.00 C88.80,157.00 87.99,157.52 87.78,158.16 C87.57,158.80 85.62,159.36 83.45,159.41 C80.14,159.49 79.49,159.84 79.47,161.61 C79.42,164.55 75.90,172.06 74.87,171.42 C74.40,171.13 74.32,171.67 74.68,172.61 C75.13,173.78 74.96,174.10 74.17,173.61 C73.53,173.21 73.00,173.36 73.00,173.94 C73.00,174.52 72.66,174.91 72.25,174.79 C71.84,174.67 69.86,175.38 67.86,176.35 C64.25,178.11 64.22,178.18 64.19,184.45 C64.16,189.21 64.60,191.27 65.95,192.72 C66.94,193.78 68.09,195.74 68.50,197.08 C69.64,200.77 70.99,202.00 73.92,202.00 C75.40,202.00 77.23,201.44 78.00,200.75 C79.19,199.69 79.21,199.76 78.08,201.25 C76.93,202.76 77.01,203.00 78.63,203.02 C80.02,203.03 80.16,203.24 79.18,203.87 C78.11,204.55 78.18,205.04 79.54,206.40 ZM 112.01 140.49 L 128.48 124.00 L 128.49 124.00 L 101.35 151.25 C88.02,164.63 76.47,176.62 73.71,179.89 C74.38,178.63 75.24,177.41 76.30,176.25 C77.43,175.01 77.82,174.00 77.17,174.00 C76.53,174.00 76.00,173.52 76.00,172.93 C76.00,172.35 76.80,172.12 77.78,172.43 C79.06,172.84 81.65,170.89 87.00,165.50 C91.10,161.37 93.90,158.00 93.22,158.00 C92.55,158.00 92.00,157.52 92.00,156.93 C92.00,156.35 92.80,156.12 93.77,156.43 C95.08,156.84 99.82,152.70 112.01,140.49 ZM 198.66 206.26 C199.40,207.45 203.26,206.75 203.73,205.33 C204.29,203.62 199.93,202.49 198.94,204.10 C198.50,204.82 198.37,205.79 198.66,206.26 ZM 74.01 193.78 C72.36,191.08 71.72,188.13 72.04,185.19 C71.91,188.48 72.90,192.10 74.62,194.72 C74.42,194.43 74.21,194.12 74.01,193.78 ZM 80.17 198.48 C81.67,198.68 83.62,198.75 85.36,198.63 C83.27,198.78 81.59,198.75 80.17,198.48 Z" fill="rgb(254,254,254)"/>
<path d="M 79.54 206.40 C78.18,205.04 78.11,204.55 79.18,203.87 C80.16,203.24 80.02,203.03 78.63,203.02 C77.01,203.00 76.93,202.76 78.08,201.25 C79.21,199.76 79.19,199.69 78.00,200.75 C77.23,201.44 75.40,202.00 73.92,202.00 C70.99,202.00 69.64,200.77 68.50,197.08 C68.09,195.74 66.94,193.78 65.95,192.72 C64.60,191.27 64.16,189.21 64.19,184.45 C64.22,178.18 64.25,178.11 67.86,176.35 C69.86,175.38 71.84,174.67 72.25,174.79 C72.66,174.91 73.00,174.52 73.00,173.94 C73.00,173.36 73.53,173.21 74.17,173.61 C74.96,174.10 75.13,173.78 74.68,172.61 C74.32,171.67 74.40,171.13 74.87,171.42 C75.90,172.06 79.42,164.55 79.47,161.61 C79.49,159.84 80.14,159.49 83.45,159.41 C85.62,159.36 87.57,158.80 87.78,158.16 C87.99,157.52 88.80,157.00 89.56,157.00 C91.26,157.00 95.26,149.46 95.40,146.00 C95.48,143.89 95.99,143.50 98.65,143.47 C102.47,143.44 107.13,141.11 106.39,139.60 C106.09,138.99 106.56,139.37 107.43,140.44 C108.95,142.32 109.00,142.31 109.00,139.81 C109.00,138.39 109.64,136.00 110.42,134.49 C111.20,132.98 111.64,131.22 111.39,130.56 C111.13,129.91 111.73,128.65 112.71,127.76 C114.44,126.19 114.91,126.00 116.97,126.00 C118.71,126.00 116.95,123.30 114.47,122.17 C113.10,121.55 111.78,119.86 111.42,118.28 C110.83,115.68 98.72,103.00 96.83,103.00 C96.37,103.00 96.00,102.41 96.00,101.68 C96.00,100.11 82.95,87.71 82.15,88.52 C81.84,88.83 80.89,87.61 80.04,85.82 C79.19,84.02 77.40,82.01 76.05,81.34 C74.71,80.67 72.80,78.54 71.81,76.62 C70.82,74.70 68.66,72.32 67.01,71.35 C64.22,69.70 64.00,69.15 64.00,63.82 C64.00,58.85 64.37,57.74 66.75,55.52 C68.26,54.12 69.50,51.98 69.50,50.77 C69.50,48.04 73.46,45.85 76.40,46.95 C77.56,47.39 79.48,47.38 80.69,46.93 C81.89,46.48 84.14,46.26 85.69,46.44 C87.23,46.62 89.98,46.82 91.80,46.89 C93.94,46.96 95.92,47.89 97.45,49.54 C98.75,50.94 99.96,51.63 100.15,51.07 C100.34,50.51 101.62,49.93 103.00,49.78 C105.41,49.51 105.49,49.68 105.17,54.50 C104.85,59.26 104.91,59.40 106.47,57.50 C108.08,55.52 108.10,55.53 107.49,57.74 C107.02,59.44 107.22,59.85 108.32,59.43 C109.56,58.95 110.90,60.32 114.54,65.78 C114.64,65.93 115.85,65.63 117.23,65.10 C118.95,64.45 120.10,64.50 120.87,65.27 C122.55,66.95 122.24,68.00 120.06,68.00 C117.33,68.00 116.70,69.52 118.76,71.14 C120.36,72.39 120.38,72.35 119.04,70.64 C117.66,68.89 117.78,68.81 121.04,69.28 C126.76,70.12 128.23,71.03 127.59,73.39 C127.28,74.55 127.02,76.09 127.01,76.81 C127.01,77.58 126.48,77.82 125.75,77.39 C125.06,76.98 125.74,77.92 127.25,79.46 C128.76,81.01 130.00,82.58 130.00,82.95 C130.00,83.32 131.46,84.69 133.25,86.00 C135.04,87.31 135.94,87.69 135.26,86.85 C134.58,86.01 134.31,85.02 134.68,84.66 C135.04,84.30 134.81,84.00 134.17,84.00 C132.51,84.00 132.72,81.32 134.43,80.67 C136.14,80.01 138.44,82.48 137.51,83.98 C137.15,84.57 137.22,84.96 137.68,84.85 C138.13,84.74 139.77,85.27 141.32,86.02 C143.44,87.05 144.00,87.89 143.58,89.44 C143.28,90.57 143.02,92.09 143.01,92.81 C143.01,93.54 142.49,93.80 141.85,93.40 C141.16,92.98 140.96,93.13 141.36,93.77 C142.64,95.85 147.96,96.25 151.57,94.53 C153.48,93.63 154.80,92.49 154.51,92.01 C154.21,91.53 154.49,90.81 155.14,90.41 C155.87,89.96 156.04,90.12 155.60,90.85 C154.57,92.51 155.88,92.26 157.69,90.45 C158.54,89.60 158.98,88.64 158.65,88.32 C158.33,88.00 158.70,86.84 159.46,85.75 C160.22,84.66 160.61,83.15 160.32,82.39 C159.69,80.75 162.81,79.37 167.81,79.08 C168.53,79.03 168.86,78.59 168.55,78.09 C168.24,77.59 169.12,77.30 170.50,77.45 C172.65,77.69 173.00,77.32 173.00,74.86 C173.00,73.29 173.42,72.00 173.93,72.00 C175.01,72.00 176.51,68.10 176.15,66.24 C175.85,64.68 179.07,63.35 183.81,63.08 C184.53,63.03 184.84,62.55 184.50,62.00 C184.16,61.45 184.36,61.00 184.94,61.00 C185.52,61.00 186.00,60.33 186.00,59.50 C186.00,58.67 186.68,58.00 187.50,58.00 C188.32,58.00 189.00,57.33 189.00,56.50 C189.00,55.67 189.45,55.00 190.00,55.00 C190.55,55.00 191.00,54.26 191.00,53.37 C191.00,52.47 192.24,50.65 193.75,49.33 C195.98,47.38 197.46,46.97 201.56,47.14 C204.35,47.25 207.06,47.08 207.59,46.76 C208.11,46.43 211.83,46.33 215.86,46.53 C223.23,46.90 226.58,48.26 225.27,50.36 C224.88,50.99 224.70,56.30 224.85,62.16 C225.12,71.88 224.94,73.13 222.82,76.40 C221.54,78.38 219.92,79.77 219.21,79.51 C218.50,79.25 217.67,79.70 217.36,80.52 C217.04,81.33 215.82,82.01 214.64,82.02 C211.52,82.04 210.19,83.19 209.61,86.36 C209.00,89.70 207.28,92.00 205.38,92.00 C204.62,92.00 204.00,92.61 204.00,93.35 C204.00,94.93 200.64,98.19 199.38,97.84 C197.77,97.40 194.00,99.12 193.92,100.32 C193.63,104.84 191.76,108.00 189.38,108.00 C188.62,108.00 188.00,108.61 188.00,109.35 C188.00,111.01 184.22,114.55 183.36,113.70 C182.41,112.75 179.19,114.78 177.46,117.42 C176.61,118.72 175.70,121.54 175.44,123.70 C175.04,127.01 175.39,128.01 177.65,130.06 C179.12,131.40 180.04,132.00 179.69,131.40 C179.35,130.79 180.14,129.80 181.46,129.20 C183.31,128.36 184.11,128.43 185.01,129.51 C185.65,130.28 185.87,131.39 185.51,131.98 C185.15,132.57 185.22,132.96 185.68,132.85 C186.13,132.74 187.77,133.27 189.32,134.02 C191.44,135.05 192.00,135.89 191.58,137.44 C191.28,138.57 191.02,140.09 191.01,140.81 C191.01,141.53 190.52,141.82 189.93,141.45 C189.34,141.09 189.43,141.72 190.14,142.85 C190.85,143.98 191.61,144.73 191.83,144.50 C192.05,144.28 192.90,144.75 193.70,145.56 C194.50,146.36 195.65,146.72 196.25,146.35 C196.93,145.93 197.12,146.25 196.75,147.21 C195.97,149.24 200.07,151.43 202.93,150.52 C204.16,150.13 205.72,150.35 206.55,151.04 C208.45,152.62 208.40,154.00 206.44,154.00 C205.58,154.00 205.14,154.41 205.45,154.91 C205.76,155.42 205.45,156.02 204.77,156.24 C204.04,156.49 205.47,158.56 208.31,161.36 C211.12,164.13 213.56,165.77 214.24,165.35 C215.11,164.81 215.10,164.53 214.20,164.23 C212.54,163.68 212.69,161.33 214.43,160.67 C216.09,160.03 218.20,162.19 217.79,164.10 C217.63,164.82 217.95,165.45 218.50,165.50 C222.30,165.86 223.60,167.16 223.76,170.75 C223.84,172.81 224.20,180.05 224.54,186.83 C225.09,197.64 224.96,199.39 223.45,201.05 C222.51,202.10 221.29,202.68 220.76,202.35 C220.22,202.02 217.26,201.75 214.17,201.75 C210.87,201.75 207.61,201.13 206.27,200.26 C204.92,199.37 204.00,199.20 204.00,199.84 C204.00,200.43 202.46,201.20 200.59,201.55 C196.61,202.30 191.79,200.34 191.44,197.84 C191.31,196.92 187.65,192.65 183.31,188.34 C178.97,184.03 173.84,178.70 171.92,176.50 C169.99,174.30 166.70,171.20 164.60,169.62 C162.50,168.03 160.15,165.22 159.38,163.37 C158.09,160.29 157.00,159.49 154.64,159.92 C153.44,160.14 151.14,156.81 151.60,155.54 C151.81,154.97 151.58,153.88 151.10,153.11 C149.79,151.06 144.99,153.04 140.07,157.67 C137.84,159.78 135.56,161.56 135.01,161.62 C134.45,161.69 133.58,161.81 133.07,161.88 C131.33,162.11 128.88,165.26 129.40,166.60 C130.01,168.19 121.31,177.22 118.77,177.62 C118.35,177.69 117.58,177.81 117.07,177.88 C115.33,178.11 112.88,181.26 113.40,182.60 C113.98,184.10 105.21,193.34 103.02,193.55 C100.64,193.77 98.00,195.44 97.49,197.05 C96.41,200.44 94.13,201.98 91.08,201.37 C87.49,200.65 84.23,202.35 83.82,205.17 C83.40,208.01 81.65,208.51 79.54,206.40 ZM 147.03 143.36 C149.59,145.45 160.91,156.43 174.01,169.57 C188.58,184.18 201.72,196.78 203.20,197.57 C206.07,199.09 210.04,199.36 213.20,198.46 C213.60,198.74 214.17,198.48 215.37,197.69 C215.45,197.64 215.53,197.58 215.62,197.52 L 213.97 199.00 L 216.50 199.00 C219.72,199.00 223.01,193.90 222.95,189.00 L 222.91 185.50 L 221.50 189.50 C221.45,189.64 221.39,189.79 221.33,189.94 C221.55,189.26 221.71,188.58 221.81,187.89 C222.15,185.74 221.85,183.58 220.89,181.68 C220.56,181.02 216.49,176.64 210.36,170.29 C216.76,176.68 220.98,180.80 221.20,180.84 C222.83,181.20 219.02,174.40 217.02,173.36 C215.81,172.74 213.71,170.66 212.35,168.75 C210.99,166.84 208.83,164.71 207.55,164.02 C206.27,163.34 204.73,161.70 204.13,160.38 C203.52,159.05 202.00,157.50 200.73,156.92 C199.47,156.35 197.55,154.52 196.47,152.87 C195.38,151.21 193.27,149.21 191.77,148.41 C190.26,147.62 188.34,145.62 187.49,143.98 C186.64,142.34 185.36,141.00 184.63,141.00 C183.91,141.00 182.21,139.44 180.86,137.54 C179.51,135.64 176.24,132.44 173.60,130.42 C169.52,127.31 168.88,126.36 169.33,124.13 C169.91,121.23 177.87,112.00 179.79,112.00 C180.46,112.00 181.00,111.32 181.00,110.48 C181.00,109.64 182.05,108.48 183.33,107.90 C184.60,107.32 187.60,104.40 189.97,101.42 C192.35,98.44 194.91,96.00 195.65,96.00 C196.39,96.00 197.00,95.32 197.00,94.48 C197.00,93.64 198.05,92.48 199.33,91.90 C200.60,91.32 203.60,88.40 205.97,85.42 C208.35,82.44 210.88,80.00 211.58,80.00 C212.29,80.00 213.12,79.21 213.42,78.24 C213.73,77.27 214.99,76.04 216.22,75.49 C217.46,74.95 218.98,73.45 219.62,72.17 C220.25,70.88 221.27,69.33 221.88,68.72 C223.60,67.00 223.23,56.55 221.31,52.53 C219.86,49.49 219.15,49.00 216.17,49.00 L 212.70 49.00 L 215.14 50.64 C211.88,48.95 207.81,48.78 203.89,50.55 C201.21,51.76 191.20,61.19 173.36,79.31 L 153.35 99.64 C153.98,98.45 152.57,99.04 149.73,101.75 L 146.84 104.50 L 143.68 100.50 C141.94,98.30 139.17,95.29 137.51,93.80 C135.86,92.32 133.92,90.52 133.21,89.80 C132.50,89.09 129.22,85.80 125.93,82.50 C122.63,79.20 118.82,75.38 117.45,74.00 C116.08,72.62 114.41,70.95 113.73,70.27 C113.05,69.60 111.38,67.92 110.00,66.55 L 106.00 62.55 C105.18,61.72 103.38,59.94 102.00,58.60 C100.62,57.25 98.45,54.77 97.17,53.08 C95.83,51.30 93.93,50.00 92.68,50.00 C91.07,50.00 97.73,57.22 118.50,78.00 C113.64,73.15 108.97,68.55 104.82,64.54 C101.58,61.38 98.91,58.83 96.68,56.78 C92.45,52.84 89.62,50.37 89.03,50.16 C88.40,49.95 87.84,49.80 87.30,49.73 C85.00,48.74 83.33,48.99 81.00,49.50 C79.34,49.86 76.64,51.51 75.00,53.16 C72.56,55.60 72.00,56.99 72.00,60.64 C72.00,63.11 72.50,66.11 73.11,67.32 C73.71,68.52 86.42,81.76 101.35,96.75 L 128.48 124.00 L 112.01 140.49 C99.82,152.70 95.08,156.84 93.77,156.43 C92.80,156.12 92.00,156.35 92.00,156.93 C92.00,157.52 92.55,158.00 93.22,158.00 C93.90,158.00 91.10,161.37 87.00,165.50 C81.65,170.89 79.06,172.84 77.78,172.43 C76.80,172.12 76.00,172.35 76.00,172.93 C76.00,173.52 76.53,174.00 77.17,174.00 C77.82,174.00 77.43,175.01 76.30,176.25 C75.24,177.41 74.38,178.63 73.71,179.89 C73.38,180.29 73.17,180.56 73.11,180.68 C72.44,182.00 72.10,183.56 72.04,185.19 C71.72,188.13 72.36,191.08 74.01,193.78 C74.21,194.12 74.42,194.43 74.62,194.72 C75.62,196.24 76.85,197.43 78.26,198.03 C78.69,198.21 79.36,198.36 80.17,198.48 C81.59,198.75 83.27,198.78 85.36,198.63 L 90.21 198.27 L 117.76 170.74 C102.97,185.53 91.00,197.79 91.00,198.15 C91.00,199.59 94.56,198.22 95.51,196.41 C96.07,195.36 104.62,186.50 114.51,176.73 C143.00,148.58 143.98,147.57 143.99,146.25 C144.00,145.56 144.45,145.00 145.00,145.00 C145.50,145.00 145.92,144.54 145.99,143.94 C146.44,143.64 146.78,143.44 147.03,143.36 ZM 198.66 206.26 C198.37,205.79 198.50,204.82 198.94,204.10 C199.93,202.49 204.29,203.62 203.73,205.33 C203.26,206.75 199.40,207.45 198.66,206.26 ZM 219.22 68.01 C219.24,67.98 219.26,67.96 219.28,67.93 C215.47,72.54 206.88,81.53 192.70,95.75 C206.50,81.91 215.30,72.70 219.22,68.01 ZM 136.73 152.09 C133.13,155.55 128.69,159.89 123.79,164.74 C126.73,161.82 129.53,159.06 132.09,156.56 C133.79,154.90 135.34,153.42 136.73,152.09 ZM 133.37 92.79 C129.70,89.19 125.12,84.62 119.33,78.83 C124.44,83.94 129.24,88.71 133.37,92.79 ZM 164.54 124.00 L 167.45 126.94 L 164.53 124.02 ZM 221.83 61.84 C221.87,62.79 221.80,63.71 221.59,64.56 C221.58,64.58 221.58,64.59 221.58,64.60 C221.59,64.54 221.61,64.48 221.62,64.41 C221.79,63.59 221.85,62.73 221.83,61.84 Z" fill="rgb(252,253,252)"/>
<path d="M 91.00 198.15 C91.00,197.79 103.38,185.12 118.50,170.00 C133.62,154.88 146.00,143.07 146.00,143.76 C146.00,144.44 145.55,145.00 145.00,145.00 C144.45,145.00 144.00,145.56 143.99,146.25 C143.98,147.57 143.00,148.58 114.51,176.73 C104.62,186.50 96.07,195.36 95.51,196.41 C94.56,198.22 91.00,199.59 91.00,198.15 ZM 217.03 196.25 C218.71,194.74 220.72,191.70 221.50,189.50 L 222.91 185.50 L 222.95 189.00 C223.01,193.90 219.72,199.00 216.50,199.00 L 213.97 199.00 L 217.03 196.25 ZM 192.52 152.35 L 164.54 124.00 L 192.70 95.75 C212.14,76.25 221.09,66.59 221.59,64.56 C222.67,60.15 220.13,53.99 216.10,51.28 L 212.70 49.00 L 216.17 49.00 C219.15,49.00 219.86,49.49 221.31,52.53 C223.23,56.55 223.60,67.00 221.88,68.72 C221.27,69.33 220.25,70.88 219.62,72.17 C218.98,73.45 217.46,74.95 216.22,75.49 C214.99,76.04 213.73,77.27 213.42,78.24 C213.12,79.21 212.29,80.00 211.58,80.00 C210.88,80.00 208.35,82.44 205.97,85.42 C203.60,88.40 200.60,91.32 199.33,91.90 C198.05,92.48 197.00,93.64 197.00,94.48 C197.00,95.32 196.39,96.00 195.65,96.00 C194.91,96.00 192.35,98.44 189.97,101.42 C187.60,104.40 184.60,107.32 183.33,107.90 C182.05,108.48 181.00,109.64 181.00,110.48 C181.00,111.32 180.46,112.00 179.79,112.00 C177.87,112.00 169.91,121.23 169.33,124.13 C168.88,126.36 169.52,127.31 173.60,130.42 C176.24,132.44 179.51,135.64 180.86,137.54 C182.21,139.44 183.91,141.00 184.63,141.00 C185.36,141.00 186.64,142.34 187.49,143.98 C188.34,145.62 190.26,147.62 191.77,148.41 C193.27,149.21 195.38,151.21 196.47,152.87 C197.55,154.52 199.47,156.35 200.73,156.92 C202.00,157.50 203.52,159.05 204.13,160.38 C204.73,161.70 206.27,163.34 207.55,164.02 C208.83,164.71 210.99,166.84 212.35,168.75 C213.71,170.66 215.81,172.74 217.02,173.36 C219.02,174.40 222.83,181.20 221.20,180.84 C220.82,180.76 207.91,167.93 192.52,152.35 ZM 118.50 78.00 C97.73,57.22 91.07,50.00 92.68,50.00 C93.93,50.00 95.83,51.30 97.17,53.08 C98.45,54.77 100.62,57.25 102.00,58.60 C103.38,59.94 105.18,61.72 106.00,62.55 C106.82,63.37 108.62,65.17 110.00,66.55 C111.38,67.92 113.05,69.60 113.73,70.27 C114.41,70.95 116.08,72.62 117.45,74.00 C118.82,75.38 122.63,79.20 125.93,82.50 C129.22,85.80 132.50,89.09 133.21,89.80 C133.92,90.52 135.86,92.32 137.51,93.80 C139.17,95.29 141.94,98.30 143.68,100.50 L 146.84 104.50 L 149.73 101.75 C153.92,97.75 155.00,98.38 151.00,102.50 C149.13,104.43 147.36,106.00 147.05,106.00 C146.74,106.00 133.89,93.40 118.50,78.00 Z" fill="rgb(240,249,254)"/>
</g>
</svg>