<svg xmlns="http://www.w3.org/2000/svg" width="252" height="194" viewBox="0 0 252 194">
<g>
<path d="M 118.86 56.25 C119.06,57.30 118.79,57.19 116.37,55.23 C115.19,54.28 113.73,52.52 113.12,51.32 C112.36,49.83 111.12,49.16 109.25,49.21 C105.34,49.32 102.00,48.09 102.00,46.54 C102.00,45.81 101.31,44.95 100.48,44.63 C99.19,44.13 99.26,43.74 100.98,42.02 C102.09,40.91 103.00,39.18 103.00,38.17 C103.00,34.84 107.69,31.59 113.31,31.02 C117.02,30.65 118.50,30.07 118.50,29.00 C118.50,28.17 119.51,26.92 120.75,26.22 C121.99,25.51 122.98,24.61 122.96,24.22 C122.90,22.94 118.55,18.33 116.83,17.72 C115.91,17.39 115.01,16.08 114.83,14.81 C114.32,11.21 111.18,12.00 108.13,16.50 C105.02,21.08 102.17,21.95 99.60,19.12 C95.18,14.23 102.20,9.62 114.20,9.55 C122.62,9.50 125.29,8.26 123.00,5.50 C122.11,4.43 120.80,4.10 119.00,4.50 C117.29,4.88 115.89,4.58 115.14,3.67 C114.18,2.51 114.54,2.14 117.11,1.63 C118.84,1.28 122.95,1.00 126.25,1.00 L 132.24 1.00 L 131.71 6.75 C131.42,9.91 130.88,13.47 130.50,14.66 C130.02,16.17 130.45,17.45 131.91,18.91 C134.54,21.54 134.96,21.52 138.07,18.64 C141.75,15.23 144.42,13.99 150.30,13.00 C153.16,12.51 156.87,11.83 158.55,11.47 C161.17,10.92 162.42,11.49 167.33,15.49 C170.47,18.05 174.62,22.48 176.53,25.32 L 180.02 30.50 L 177.26 32.46 C175.74,33.54 171.57,37.23 167.98,40.65 L 161.46 46.88 L 142.98 47.06 C132.82,47.15 123.76,47.62 122.86,48.09 C121.32,48.90 118.54,54.58 118.86,56.25 ZM 139.72 65.02 C139.64,66.11 139.56,66.97 139.54,66.93 C139.52,66.89 138.15,65.99 136.50,64.93 C134.85,63.88 133.95,63.00 134.50,62.99 C135.05,62.98 134.82,62.51 134.00,61.95 C132.90,61.21 133.31,61.12 135.50,61.61 C139.61,62.52 139.89,62.76 139.72,65.02 Z" fill="rgb(45,157,201)"/>
<path d="M 112.12 188.44 C106.96,191.11 98.36,190.47 92.25,186.97 C75.74,177.50 76.91,152.78 94.22,145.55 C98.80,143.64 107.96,143.54 112.31,145.35 C115.06,146.50 115.75,146.50 116.86,145.30 C117.69,144.41 119.71,144.01 122.34,144.20 L 126.50 144.50 L 126.77 166.43 C126.98,183.30 126.75,188.54 125.77,189.16 C124.31,190.09 118.07,189.19 116.32,187.81 C115.57,187.21 114.06,187.43 112.12,188.44 ZM 235.13 188.59 C230.26,190.63 221.29,190.31 216.54,187.94 C200.17,179.78 198.11,159.07 212.58,148.11 C216.38,145.24 218.07,144.66 223.88,144.24 C232.00,143.66 236.81,145.02 241.64,149.26 C246.90,153.87 249.00,158.80 249.00,166.49 C249.00,177.06 244.12,184.83 235.13,188.59 ZM 40.80 188.80 C38.33,191.27 27.18,189.69 22.24,186.17 C17.47,182.78 16.11,178.67 15.93,167.18 C15.83,160.82 15.34,156.71 14.63,156.27 C14.01,155.89 11.70,155.33 9.50,155.04 C5.53,154.50 5.50,154.46 5.20,149.80 L 4.89 145.11 L 10.20 144.80 L 15.50 144.50 L 15.68 139.50 C15.77,136.75 15.89,133.94 15.93,133.25 C15.98,132.41 17.80,132.00 21.45,132.00 L 26.90 132.00 L 27.20 138.25 L 27.50 144.50 L 34.80 144.79 L 42.11 145.09 L 41.80 149.79 L 41.50 154.50 L 36.50 154.76 C31.63,155.02 29.25,155.03 28.09,156.23 C26.99,157.37 26.99,159.59 27.00,164.13 C27.00,164.52 27.00,164.93 27.00,165.36 C27.00,176.27 28.06,178.00 34.75,178.00 C41.11,178.00 42.00,178.66 42.00,183.41 C42.00,185.71 41.46,188.14 40.80,188.80 ZM 160.71 189.20 C159.45,190.00 154.66,190.08 151.91,189.34 C150.39,188.94 144.00,176.24 144.00,173.63 C144.00,172.96 143.61,171.97 143.14,171.45 C142.67,170.93 140.10,164.96 137.44,158.18 C131.98,144.31 132.08,143.78 139.98,144.24 L 144.45 144.50 L 149.82 158.25 C152.77,165.81 155.49,172.00 155.86,172.00 C156.22,172.00 158.44,166.94 160.77,160.75 C166.98,144.28 166.80,144.54 172.03,144.24 C174.49,144.10 177.07,144.35 177.76,144.80 C178.70,145.42 176.91,150.90 170.46,167.03 C165.76,178.80 161.37,188.78 160.71,189.20 ZM 59.80 188.80 C59.14,189.46 57.21,190.00 55.50,190.00 C50.13,190.00 50.00,189.43 50.00,166.41 L 50.00 145.23 L 54.70 144.52 C58.53,143.95 59.63,144.14 60.66,145.55 C61.74,147.03 62.34,147.10 64.86,146.06 C66.48,145.39 69.98,144.76 72.65,144.67 L 77.50 144.50 L 77.50 154.50 L 72.90 155.64 C62.62,158.17 61.00,161.05 61.00,176.70 C61.00,183.84 60.59,188.01 59.80,188.80 ZM 96.78 176.49 C101.00,179.36 104.81,179.66 109.39,177.48 C115.34,174.66 117.69,167.18 114.55,161.10 C112.47,157.08 108.74,155.00 103.61,155.00 C91.87,155.00 87.13,169.94 96.78,176.49 ZM 221.03 177.72 C224.35,179.40 228.48,179.32 231.99,177.51 C236.28,175.29 238.00,172.19 238.00,166.68 C238.00,162.46 237.54,161.34 234.60,158.40 C231.71,155.51 230.50,155.00 226.56,155.00 C219.17,155.00 214.00,159.85 214.00,166.80 C214.00,170.33 217.66,176.02 221.03,177.72 ZM 195.50 144.50 L 195.50 188.47 L 192.00 189.02 C191.63,189.07 191.28,189.13 190.95,189.19 C189.02,189.51 187.70,189.73 186.82,189.21 C184.95,188.12 185.01,183.75 185.19,170.15 C185.20,169.05 185.22,167.90 185.23,166.67 L 185.50 144.50 ZM 194.81 136.96 C192.02,139.56 188.97,139.55 185.63,136.93 C182.44,134.41 182.03,129.19 184.83,126.65 C187.57,124.18 193.53,124.50 195.44,127.22 C197.65,130.37 197.38,134.57 194.81,136.96 Z" fill="rgb(43,48,61)"/>
<path d="M 71.56 48.29 C71.89,49.16 71.38,49.93 70.27,50.22 C68.71,50.63 68.49,50.20 68.83,47.35 C69.20,44.12 71.00,42.52 71.00,45.42 C71.00,46.20 71.25,47.49 71.56,48.29 Z" fill="rgb(103,106,113)"/>
<path d="M 118.86 56.25 C118.54,54.58 121.32,48.90 122.86,48.09 C123.20,47.91 124.71,47.74 127.01,47.58 L 124.80 49.69 C123.26,51.16 122.00,52.72 122.00,53.14 C122.00,53.90 143.46,61.00 145.77,61.00 C147.87,61.00 147.10,62.30 141.21,68.67 L 135.50 74.85 L 130.23 73.72 C125.16,72.64 124.85,72.70 122.32,75.22 L 119.70 77.85 L 124.35 80.03 C126.91,81.24 129.00,82.59 129.00,83.04 C129.00,83.49 126.41,84.84 123.25,86.05 C115.62,88.95 101.49,89.63 94.57,87.41 C88.34,85.42 80.24,80.27 76.67,76.02 C70.52,68.72 67.41,58.59 68.53,49.58 C68.61,48.99 68.68,48.46 68.76,47.97 C68.54,50.26 68.83,50.60 70.27,50.22 C71.38,49.93 71.89,49.16 71.56,48.29 C71.28,47.56 71.04,46.42 71.01,45.63 C71.15,46.11 71.29,46.71 71.42,47.43 C72.11,51.12 76.90,57.00 79.21,57.00 C79.99,57.00 81.92,58.35 83.50,60.00 C85.08,61.65 86.87,63.00 87.49,63.00 C89.89,63.00 90.80,65.08 89.67,68.05 C88.75,70.51 88.91,71.39 90.79,73.93 C92.01,75.57 93.00,77.82 93.00,78.92 C93.00,81.74 95.95,83.00 102.57,83.00 C108.84,83.00 113.61,80.76 116.40,76.52 C119.09,72.40 118.43,70.26 113.75,67.91 C111.41,66.73 108.07,64.70 106.32,63.39 C101.46,59.75 98.67,58.98 94.49,60.13 C90.14,61.33 87.31,59.50 86.81,55.15 C86.54,52.85 86.04,52.50 83.00,52.50 C79.80,52.50 79.47,52.23 79.19,49.31 C78.82,45.47 82.25,42.67 86.69,43.18 C88.91,43.43 89.57,44.07 89.82,46.25 C90.20,49.57 92.99,50.00 93.03,46.75 C93.07,43.95 94.51,42.10 99.00,39.05 C100.93,37.75 103.76,35.52 105.29,34.11 C107.28,32.29 109.58,31.40 113.29,31.02 C116.39,30.71 117.93,30.26 118.37,29.50 C117.93,30.26 116.39,30.71 113.31,31.02 C107.69,31.59 103.00,34.84 103.00,38.17 C103.00,39.18 102.09,40.91 100.98,42.02 C99.26,43.74 99.19,44.13 100.48,44.63 C101.31,44.95 102.00,45.81 102.00,46.54 C102.00,48.09 105.34,49.32 109.25,49.21 C111.12,49.16 112.36,49.83 113.12,51.32 C113.73,52.52 115.19,54.28 116.37,55.23 C118.79,57.19 119.06,57.30 118.86,56.25 ZM 139.72 65.02 C139.89,62.76 139.61,62.52 135.50,61.61 C133.31,61.12 132.90,61.21 134.00,61.95 C134.82,62.51 135.05,62.98 134.50,62.99 C133.95,63.00 134.85,63.88 136.50,64.93 C138.15,65.99 139.52,66.89 139.54,66.93 C139.56,66.97 139.64,66.11 139.72,65.02 ZM 161.34 47.00 L 148.84 47.00 L 161.46 46.88 L 167.98 40.65 C171.57,37.23 175.74,33.55 177.26,32.46 C175.74,33.55 171.54,37.26 167.92,40.71 ZM 69.89 44.26 C69.76,44.42 69.63,44.62 69.51,44.86 C69.64,44.57 69.76,44.37 69.89,44.26 Z" fill="rgb(51,104,166)"/>
<path d="M 0.00 0.00 L 131.50 0.00 L 131.50 1.00 L 126.25 1.00 C123.43,1.00 120.02,1.21 118.01,1.48 C118.39,1.34 118.73,1.17 119.00,1.00 C119.98,0.37 99.52,0.03 60.25,0.02 ZM 74.28 72.82 C69.70,66.27 67.46,58.20 68.53,49.58 C67.56,57.33 69.74,65.92 74.28,72.82 ZM 102.72 88.66 C106.43,88.84 110.53,88.65 114.35,88.13 C112.64,88.42 110.97,88.63 109.45,88.73 C107.16,88.88 104.91,88.85 102.72,88.66 ZM 123.72 85.86 C126.66,84.71 129.00,83.47 129.00,83.04 C129.00,83.79 126.82,84.86 123.72,85.86 ZM 115.63 1.98 C114.48,2.35 114.41,2.77 115.08,3.60 C115.07,3.58 115.05,3.56 115.04,3.54 C113.96,2.25 114.05,2.00 115.63,1.98 ZM 81.09 80.10 C83.15,81.68 85.54,83.21 87.96,84.52 C85.48,83.28 83.18,81.79 81.09,80.10 ZM 122.01 53.17 C122.00,53.16 122.00,53.15 122.00,53.14 C122.00,52.72 123.23,51.21 124.74,49.75 L 124.69 49.80 C123.30,51.25 122.15,52.71 122.01,53.17 ZM 133.45 57.50 C139.02,59.30 144.75,61.00 145.77,61.00 C144.65,61.00 138.97,59.31 133.45,57.50 ZM 131.11 11.65 C130.97,12.71 130.81,13.61 130.64,14.16 C130.62,14.22 130.61,14.28 130.59,14.34 C130.75,13.72 130.93,12.77 131.11,11.65 ZM 130.53 14.57 C130.36,15.21 130.29,15.74 130.34,16.24 C130.27,15.73 130.32,15.21 130.50,14.66 C130.51,14.63 130.52,14.60 130.53,14.57 ZM 116.98 4.61 C117.58,4.70 118.26,4.66 119.00,4.50 C118.25,4.67 117.57,4.70 116.98,4.61 Z" fill="rgb(190,199,211)"/>
<path d="M 177.24 88.87 C173.31,95.12 172.54,95.80 171.12,94.28 C170.00,93.09 170.13,92.49 171.89,90.61 C173.12,89.30 174.04,86.94 174.10,84.94 C174.19,81.83 174.27,81.74 174.92,84.00 C175.33,85.44 176.33,86.45 177.26,86.37 C178.76,86.25 178.75,86.46 177.24,88.87 Z" fill="rgb(221,151,132)"/>
<path d="M 145.00 113.07 C125.22,119.32 102.99,114.17 87.28,99.69 C83.22,95.95 77.00,88.01 77.00,86.57 C77.00,85.36 79.11,86.11 83.50,88.90 C94.26,95.72 110.19,96.71 126.50,91.56 C130.90,90.17 134.75,89.02 135.07,89.02 C135.38,89.01 136.64,90.80 137.88,93.00 C139.12,95.20 140.49,97.00 140.93,97.00 C141.37,97.00 142.92,96.07 144.37,94.92 C147.40,92.54 153.68,92.46 158.33,94.74 C160.88,96.00 161.11,96.51 160.62,100.00 C160.26,102.55 160.49,104.00 161.29,104.26 C163.16,104.89 152.27,110.78 145.00,113.07 Z" fill="rgb(234,84,79)"/>
<path d="M 160.58 105.56 C161.43,104.90 161.75,104.42 161.29,104.26 C160.49,104.00 160.26,102.55 160.62,100.00 C161.11,96.51 160.88,96.00 158.33,94.74 C153.68,92.46 147.40,92.54 144.37,94.92 C143.94,95.26 143.50,95.58 143.08,95.87 C143.36,95.63 143.66,95.34 143.98,95.02 C145.58,93.42 145.78,92.54 144.98,90.45 C142.66,84.34 143.62,81.53 149.89,76.10 C153.12,73.29 156.20,71.00 156.73,71.00 C157.25,71.00 159.63,75.61 162.00,81.25 C165.75,90.12 167.01,93.14 168.43,93.22 C169.16,93.26 169.94,92.52 171.11,91.39 L 171.15 91.35 C171.39,91.13 171.61,90.91 171.80,90.71 C170.12,92.51 170.02,93.11 171.12,94.28 C171.62,94.82 172.04,95.08 172.55,94.92 C169.05,98.97 165.03,102.55 160.58,105.56 ZM 178.17 87.29 C178.63,86.36 178.33,86.29 177.26,86.37 C176.33,86.45 175.33,85.44 174.92,84.00 C174.27,81.74 174.19,81.83 174.10,84.94 C174.08,85.63 173.96,86.36 173.76,87.08 C173.96,85.93 174.00,84.43 174.00,82.23 C174.00,78.72 173.49,71.56 172.88,66.32 L 171.75 56.80 L 178.09 50.41 C181.89,46.57 184.78,44.38 185.33,44.93 C185.83,45.43 186.47,49.82 186.75,54.69 C187.15,61.79 186.82,65.10 185.07,71.51 C183.54,77.13 181.20,82.43 178.17,87.29 ZM 145.00 113.07 C148.76,111.89 153.47,109.74 156.90,107.86 C153.16,110.02 149.18,111.78 145.00,113.09 C140.95,114.36 136.80,115.16 132.62,115.50 C126.62,115.99 120.57,115.53 114.69,114.17 C104.66,111.86 95.15,106.95 87.28,99.69 C95.15,106.95 104.66,111.86 114.69,114.17 C120.56,115.52 126.62,115.98 132.62,115.50 C136.80,115.15 140.95,114.35 145.00,113.07 ZM 141.54 96.79 C141.27,96.93 141.05,97.00 140.93,97.00 C140.74,97.00 140.36,96.65 139.90,96.08 C140.47,96.69 140.97,96.91 141.54,96.79 Z" fill="rgb(238,144,63)"/>
<path d="M 0.00 97.00 L 0.00 0.00 L 60.25 0.02 C99.52,0.03 119.98,0.37 119.00,1.00 C118.18,1.53 116.66,1.98 115.63,1.98 C114.05,2.00 113.96,2.25 115.04,3.54 C115.89,4.57 117.22,4.89 119.00,4.50 C120.80,4.10 122.11,4.43 123.00,5.50 C125.29,8.26 122.62,9.50 114.20,9.55 C102.20,9.62 95.18,14.23 99.60,19.12 C102.17,21.95 105.02,21.08 108.13,16.50 C111.18,12.00 114.32,11.21 114.83,14.81 C115.01,16.08 115.91,17.39 116.83,17.72 C118.55,18.33 122.90,22.94 122.96,24.22 C122.98,24.61 121.99,25.51 120.75,26.22 C119.51,26.92 118.50,28.17 118.50,29.00 C118.50,30.07 117.02,30.65 113.29,31.02 C109.58,31.40 107.28,32.29 105.29,34.11 C103.76,35.52 100.93,37.75 99.00,39.05 C94.51,42.10 93.07,43.95 93.03,46.75 C92.99,50.00 90.20,49.57 89.82,46.25 C89.57,44.07 88.91,43.43 86.69,43.18 C82.25,42.67 78.82,45.47 79.19,49.31 C79.47,52.23 79.80,52.50 83.00,52.50 C86.04,52.50 86.54,52.85 86.81,55.15 C87.31,59.50 90.14,61.33 94.49,60.13 C98.67,58.98 101.46,59.75 106.32,63.39 C108.07,64.70 111.41,66.73 113.75,67.91 C118.43,70.26 119.09,72.40 116.40,76.52 C113.61,80.76 108.84,83.00 102.57,83.00 C95.95,83.00 93.00,81.74 93.00,78.92 C93.00,77.82 92.01,75.57 90.79,73.93 C88.91,71.39 88.75,70.51 89.67,68.05 C90.80,65.08 89.89,63.00 87.49,63.00 C86.87,63.00 85.08,61.65 83.50,60.00 C81.92,58.35 79.99,57.00 79.21,57.00 C76.90,57.00 72.11,51.12 71.42,47.43 C70.48,42.39 69.32,43.24 68.53,49.58 C65.75,71.82 85.08,90.32 109.45,88.73 C117.20,88.23 129.00,84.79 129.00,83.04 C129.00,82.59 126.91,81.24 124.35,80.03 L 119.70 77.85 L 122.32 75.22 C124.85,72.70 125.16,72.64 130.23,73.72 L 135.50 74.85 L 141.21 68.67 C147.10,62.30 147.87,61.00 145.77,61.00 C143.68,61.00 122.00,53.94 122.00,53.25 C122.00,52.90 123.21,51.35 124.69,49.80 L 127.37 47.00 L 144.36 47.00 L 161.34 47.00 L 167.92 40.71 C171.54,37.26 175.74,33.54 177.26,32.46 L 180.02 30.50 L 176.53 25.32 C174.62,22.48 170.47,18.05 167.33,15.49 C162.42,11.49 161.17,10.92 158.55,11.47 C156.87,11.83 153.16,12.51 150.30,13.00 C144.42,13.99 141.75,15.23 138.07,18.64 C134.96,21.52 134.54,21.54 131.91,18.91 C130.29,17.29 130.01,16.24 130.64,14.16 C131.09,12.70 131.47,8.91 131.48,5.75 L 131.50 0.00 L 191.75 0.00 L 252.00 0.00 L 252.00 97.00 L 252.00 194.00 L 126.00 194.00 L 0.00 194.00 L 0.00 97.00 ZM 40.80 188.80 C41.46,188.14 42.00,185.71 42.00,183.41 C42.00,178.66 41.11,178.00 34.75,178.00 C28.06,178.00 27.00,176.27 27.00,165.36 C27.00,154.81 26.58,155.28 36.50,154.76 L 41.50 154.50 L 41.80 149.79 L 42.11 145.09 L 34.80 144.79 L 27.50 144.50 L 27.20 138.25 L 26.90 132.00 L 21.45 132.00 C17.80,132.00 15.98,132.41 15.93,133.25 C15.89,133.94 15.77,136.75 15.68,139.50 L 15.50 144.50 L 10.20 144.80 L 4.89 145.11 L 5.20 149.80 C5.50,154.46 5.53,154.50 9.50,155.04 C11.70,155.33 14.01,155.89 14.63,156.27 C15.34,156.71 15.83,160.82 15.93,167.18 C16.11,178.67 17.47,182.78 22.24,186.17 C27.18,189.69 38.33,191.27 40.80,188.80 ZM 59.80 188.80 C60.59,188.01 61.00,183.84 61.00,176.70 C61.00,161.05 62.62,158.17 72.90,155.64 L 77.50 154.50 L 77.50 149.50 L 77.50 144.50 L 72.65 144.67 C69.98,144.76 66.48,145.39 64.86,146.06 C62.34,147.10 61.74,147.03 60.66,145.55 C59.63,144.14 58.53,143.95 54.70,144.52 L 50.00 145.23 L 50.00 166.41 C50.00,189.43 50.13,190.00 55.50,190.00 C57.21,190.00 59.14,189.46 59.80,188.80 ZM 112.12 188.44 C114.06,187.43 115.57,187.21 116.32,187.81 C118.07,189.19 124.31,190.09 125.77,189.16 C126.75,188.54 126.98,183.30 126.77,166.43 L 126.50 144.50 L 122.34 144.20 C119.71,144.01 117.69,144.41 116.86,145.30 C115.75,146.50 115.06,146.50 112.31,145.35 C107.96,143.54 98.80,143.64 94.22,145.55 C76.91,152.78 75.74,177.50 92.25,186.97 C98.36,190.47 106.96,191.11 112.12,188.44 ZM 160.71 189.20 C161.37,188.78 165.76,178.80 170.46,167.03 C176.91,150.90 178.70,145.42 177.76,144.80 C177.07,144.35 174.49,144.10 172.03,144.24 C166.80,144.54 166.98,144.28 160.77,160.75 C158.44,166.94 156.22,172.00 155.86,172.00 C155.49,172.00 152.77,165.81 149.82,158.25 L 144.45 144.50 L 139.98 144.24 C132.08,143.78 131.98,144.31 137.44,158.18 C140.10,164.96 142.67,170.93 143.14,171.45 C143.61,171.97 144.00,172.96 144.00,173.63 C144.00,176.24 150.39,188.94 151.91,189.34 C154.66,190.08 159.45,190.00 160.71,189.20 ZM 195.50 166.48 L 195.50 144.50 L 190.50 144.50 L 185.50 144.50 L 185.23 166.67 C184.93,191.41 184.56,190.18 192.00,189.02 L 195.50 188.47 L 195.50 166.48 ZM 235.13 188.59 C244.12,184.83 249.00,177.06 249.00,166.49 C249.00,158.80 246.90,153.87 241.64,149.26 C236.81,145.02 232.00,143.66 223.88,144.24 C218.07,144.66 216.38,145.24 212.58,148.11 C198.11,159.07 200.17,179.78 216.54,187.94 C221.29,190.31 230.26,190.63 235.13,188.59 ZM 194.81 136.96 C197.38,134.57 197.65,130.37 195.44,127.22 C193.53,124.50 187.57,124.18 184.83,126.65 C182.03,129.19 182.44,134.41 185.63,136.93 C188.97,139.55 192.02,139.56 194.81,136.96 ZM 145.00 113.09 C164.41,107.01 179.73,91.12 185.07,71.51 C186.82,65.10 187.15,61.79 186.75,54.69 C186.47,49.82 185.83,45.43 185.33,44.93 C184.78,44.38 181.89,46.57 178.09,50.41 L 171.75 56.80 L 172.88 66.32 C173.49,71.56 174.00,78.72 174.00,82.23 C174.00,87.95 173.70,88.91 171.15,91.35 C167.66,94.70 167.69,94.75 162.00,81.25 C159.63,75.61 157.25,71.00 156.73,71.00 C156.20,71.00 153.12,73.29 149.89,76.10 C143.62,81.53 142.66,84.34 144.98,90.45 C145.78,92.54 145.58,93.42 143.98,95.02 C141.20,97.80 140.43,97.54 137.88,93.00 C136.64,90.80 135.38,89.01 135.07,89.02 C134.75,89.02 130.90,90.17 126.50,91.56 C110.19,96.71 94.26,95.72 83.50,88.90 C79.11,86.11 77.00,85.36 77.00,86.57 C77.00,88.01 83.22,95.95 87.28,99.69 C102.98,114.16 125.16,119.31 145.00,113.09 ZM 96.78 176.49 C87.13,169.94 91.87,155.00 103.61,155.00 C108.74,155.00 112.47,157.08 114.55,161.10 C117.69,167.18 115.34,174.66 109.39,177.48 C104.81,179.66 101.00,179.36 96.78,176.49 ZM 221.03 177.72 C217.66,176.02 214.00,170.33 214.00,166.80 C214.00,159.85 219.17,155.00 226.56,155.00 C230.50,155.00 231.71,155.51 234.60,158.40 C237.54,161.34 238.00,162.46 238.00,166.68 C238.00,172.19 236.28,175.29 231.99,177.51 C228.48,179.32 224.35,179.40 221.03,177.72 Z" fill="rgb(253,254,254)"/>
</g>
</svg>